<svg width="20" height="20" viewBox="0 0 20 20" fill="none" xmlns="http://www.w3.org/2000/svg">
<path d="M14.1699 16.65L14.1699 8.35002C14.1699 7.89163 14.5415 7.52002 14.9999 7.52002C15.4583 7.52002 15.8299 7.89163 15.8299 8.35002L15.8299 16.65C15.8299 17.1084 15.4583 17.48 14.9999 17.48C14.5415 17.48 14.1699 17.1084 14.1699 16.65Z" fill="#16181D"/>
<path d="M9.16992 16.64L9.16992 3.36003C9.16992 2.90164 9.54151 2.53003 9.99992 2.53003C10.4583 2.53003 10.8299 2.90164 10.8299 3.36003L10.8299 16.64C10.8299 17.0984 10.4583 17.47 9.99992 17.47C9.54151 17.47 9.16992 17.0984 9.16992 16.64Z" fill="#16181D"/>
<path d="M4.16992 16.66L4.16992 11.68C4.16992 11.2216 4.54153 10.85 4.99992 10.85C5.45831 10.85 5.82992 11.2216 5.82992 11.68L5.82992 16.66C5.82992 17.1184 5.45831 17.49 4.99992 17.49C4.54153 17.49 4.16992 17.1184 4.16992 16.66Z" fill="#16181D"/>
</svg>
