<svg width="20" height="20" viewBox="0 0 20 20" fill="none" xmlns="http://www.w3.org/2000/svg">
<path d="M2.50803 9.17004L2.59313 9.17411C3.01166 9.21661 3.33803 9.57027 3.33803 10C3.33803 10.4298 3.01166 10.7835 2.59313 10.826L2.50803 10.83H2.49992C2.04153 10.83 1.66992 10.4585 1.66992 10C1.66992 9.54163 2.04153 9.17004 2.49992 9.17004H2.50803Z" fill="#16181D"/>
<path d="M2.50803 14.17L2.59313 14.1741C3.01166 14.2166 3.33803 14.5703 3.33803 15C3.33803 15.4298 3.01166 15.7835 2.59313 15.826L2.50803 15.83H2.49992C2.04153 15.83 1.66992 15.4585 1.66992 15C1.66992 14.5416 2.04153 14.17 2.49992 14.17H2.50803Z" fill="#16181D"/>
<path d="M2.50803 4.17004L2.59313 4.17409C3.01166 4.21662 3.33803 4.5703 3.33803 5.00004C3.33803 5.42978 3.01166 5.78347 2.59313 5.82599L2.50803 5.83004H2.49992C2.04153 5.83004 1.66992 5.45844 1.66992 5.00004C1.66992 4.54165 2.04153 4.17004 2.49992 4.17004H2.50803Z" fill="#16181D"/>
<path d="M17.475 9.17004C17.9334 9.17004 18.305 9.54163 18.305 10C18.305 10.4585 17.9334 10.83 17.475 10.83L6.68498 10.83C6.22659 10.83 5.85498 10.4585 5.85498 10C5.85498 9.54163 6.22659 9.17004 6.68498 9.17004L17.475 9.17004Z" fill="#16181D"/>
<path d="M17.475 14.17C17.9334 14.17 18.305 14.5416 18.305 15C18.305 15.4585 17.9334 15.83 17.475 15.83L6.68498 15.83C6.22659 15.83 5.85498 15.4585 5.85498 15C5.85498 14.5416 6.22659 14.17 6.68498 14.17L17.475 14.17Z" fill="#16181D"/>
<path d="M17.475 4.17004C17.9334 4.17004 18.305 4.54165 18.305 5.00004C18.305 5.45844 17.9334 5.83004 17.475 5.83004L6.68498 5.83004C6.22659 5.83004 5.85498 5.45844 5.85498 5.00004C5.85498 4.54165 6.22659 4.17004 6.68498 4.17004L17.475 4.17004Z" fill="#16181D"/>
</svg>
