<svg width="20" height="20" viewBox="0 0 20 20" fill="none" xmlns="http://www.w3.org/2000/svg">
<path d="M1.68018 15.81L1.68018 4.19C1.68018 3.52961 1.9427 2.89646 2.40967 2.42949C2.87664 1.96253 3.50979 1.7 4.17018 1.7L7.49018 1.7C7.94857 1.7 8.32018 2.0716 8.32018 2.53C8.32018 2.98839 7.94857 3.36 7.49018 3.36L4.17018 3.36C3.95004 3.36 3.739 3.4475 3.58334 3.60316C3.42768 3.75882 3.34018 3.96986 3.34018 4.19L3.34018 15.81C3.34018 16.0301 3.42768 16.2412 3.58334 16.3968C3.739 16.5525 3.95004 16.64 4.17018 16.64L7.49018 16.64C7.94857 16.64 8.32018 17.0116 8.32018 17.47C8.32018 17.9284 7.94857 18.3 7.49018 18.3L4.17018 18.3C3.50979 18.3 2.87664 18.0375 2.40967 17.5705C1.9427 17.1036 1.68018 16.4703 1.68018 15.81Z" fill="#16181D"/>
<path d="M12.7583 5.26317C13.0621 4.95929 13.5427 4.94054 13.8687 5.20643L13.9319 5.26317L18.0819 9.41319C18.406 9.73731 18.406 10.2627 18.0819 10.5868L13.9319 14.7368C13.6078 15.061 13.0824 15.061 12.7583 14.7368C12.4341 14.4127 12.4341 13.8873 12.7583 13.5632L16.3214 10L12.7583 6.43684L12.7015 6.37362C12.4356 6.04762 12.4543 5.56704 12.7583 5.26317Z" fill="#16181D"/>
<path d="M17.4799 9.17C17.9383 9.17 18.3099 9.54159 18.3099 10C18.3099 10.4584 17.9383 10.83 17.4799 10.83L7.51994 10.83C7.06155 10.83 6.68994 10.4584 6.68994 10C6.68994 9.54159 7.06155 9.17 7.51994 9.17L17.4799 9.17Z" fill="#16181D"/>
</svg>
