<svg width="177" height="36" viewBox="0 0 177 36" fill="none" xmlns="http://www.w3.org/2000/svg">
<rect width="36" height="36" rx="7" fill="#55A6F6"/>
<rect width="36" height="36" rx="7" stroke="black"/>
<path d="M7 18C7 17.4814 7.0857 16.9662 7.25391 16.4756L7.2998 16.3652L8.69922 13.4648L8.74219 13.3857L8.91309 13.1299C9.35044 12.5387 10.0627 12 11 12L18 12C18.8763 12 19.6091 12.3312 20.1865 12.7402L20.4248 12.919L20.5068 12.9932C20.967 13.4533 21.525 14.036 21.9639 14.5C22.184 14.7328 22.3758 14.9376 22.5127 15.084C22.515 15.0864 22.5173 15.0894 22.5195 15.0918C22.5658 15.1023 22.6166 15.1144 22.6719 15.127C22.9551 15.1915 23.3516 15.2827 23.8047 15.3897C24.7077 15.6029 25.8481 15.8813 26.7676 16.1367C27.9679 16.4489 29 17.6157 29 19L29 22C29 22.5272 28.8194 23.0439 28.4316 23.4316C28.0439 23.8194 27.5272 24 27 24L25 24C24.4477 24 24 23.5523 24 23C24 22.4477 24.4477 22 25 22L27 22L27 19C27 18.6444 26.7298 18.2734 26.4014 18.1211L26.2578 18.0703C26.2494 18.0682 26.2407 18.0658 26.2324 18.0635C25.3519 17.8189 24.2418 17.5477 23.3447 17.3359C22.898 17.2305 22.5067 17.1398 22.2275 17.0762C22.0882 17.0444 21.9768 17.0191 21.9004 17.002C21.8621 16.9934 21.8323 16.9869 21.8125 16.9824C21.8027 16.9802 21.795 16.9786 21.79 16.9775C21.788 16.9771 21.7863 16.9768 21.7852 16.9766H21.7832C21.6347 16.9436 21.4961 16.877 21.3779 16.7832L21.2676 16.6807H21.2666V16.6797C21.266 16.6791 21.2649 16.678 21.2637 16.6768C21.2613 16.6742 21.2577 16.6702 21.2529 16.665C21.2434 16.6548 21.2292 16.6398 21.2109 16.6201C21.174 16.5805 21.1202 16.5223 21.0527 16.4502C20.9178 16.3059 20.7279 16.1046 20.5107 15.875C20.0878 15.4279 19.5652 14.8811 19.1328 14.4473C18.7562 14.1559 18.384 14 18 14L11 14C10.8756 14 10.6633 14.0898 10.4766 14.3838L9.13184 17.1689C9.04497 17.4374 9 17.7177 9 18V22H11C11.5523 22 12 22.4477 12 23C12 23.5523 11.5523 24 11 24H9C8.47275 24 7.95614 23.8194 7.56836 23.4316C7.18058 23.0439 7 22.5272 7 22L7 18Z" fill="white"/>
<path d="M14 23C14 22.4477 13.5523 22 13 22C12.4477 22 12 22.4477 12 23C12 23.5523 12.4477 24 13 24C13.5523 24 14 23.5523 14 23ZM16 23C16 24.6569 14.6568 26 13 26C11.3432 26 10 24.6569 10 23C10 21.3431 11.3432 20 13 20C14.6568 20 16 21.3431 16 23Z" fill="white"/>
<path d="M21 22C21.5523 22 22 22.4477 22 23C22 23.5523 21.5523 24 21 24H15C14.4477 24 14 23.5523 14 23C14 22.4477 14.4477 22 15 22H21Z" fill="white"/>
<path d="M24 23C24 22.4477 23.5523 22 23 22C22.4477 22 22 22.4477 22 23C22 23.5523 22.4477 24 23 24C23.5523 24 24 23.5523 24 23ZM26 23C26 24.6569 24.6569 26 23 26C21.3431 26 20 24.6569 20 23C20 21.3431 21.3431 20 23 20C24.6569 20 26 21.3431 26 23Z" fill="white"/>
<path d="M47.337 27H43.5472L49.3217 10.2727L53.8793 10.2727L59.6456 27H55.8558L51.6658 14.0952H51.5352L47.337 27ZM47.1001 20.4251L56.0518 20.4251V23.1857L47.1001 23.1857V20.4251ZM69.6387 21.6584V14.4545H73.1181V27H69.7775V24.7212H69.6468C69.3637 25.4563 68.8927 26.0471 68.2338 26.4936C67.5804 26.9401 66.7827 27.1634 65.8407 27.1634C65.0022 27.1634 64.2644 26.9728 63.6273 26.5916C62.9902 26.2105 62.492 25.6687 62.1326 24.9663C61.7787 24.2638 61.599 23.4226 61.5936 22.4425V14.4545L65.073 14.4545V21.8217C65.0784 22.5623 65.2772 23.1476 65.6692 23.5778C66.0613 24.0079 66.5867 24.223 67.2456 24.223C67.6648 24.223 68.0569 24.1277 68.4217 23.9371C68.7865 23.7411 69.0806 23.4525 69.3038 23.0714C69.5325 22.6902 69.6441 22.2192 69.6387 21.6584ZM82.5741 14.4545V17.0682H75.0191V14.4545L82.5741 14.4545ZM76.7343 11.4489L80.2137 11.4489V23.1449C80.2137 23.4661 80.2627 23.7166 80.3607 23.8963C80.4587 24.0705 80.5948 24.1931 80.7691 24.2638C80.9488 24.3346 81.1557 24.37 81.3898 24.37C81.5532 24.37 81.7165 24.3564 81.8799 24.3292C82.0432 24.2965 82.1685 24.272 82.2556 24.2557L82.8028 26.8448C82.6286 26.8993 82.3836 26.9619 82.0677 27.0327C81.7519 27.1089 81.368 27.1552 80.9161 27.1715C80.0776 27.2042 79.3425 27.0926 78.7108 26.8366C78.0847 26.5807 77.5973 26.1832 77.2488 25.6442C76.9004 25.1051 76.7288 24.4245 76.7343 23.6023V11.4489ZM90.3742 27.245C89.1055 27.245 88.0083 26.9755 87.0827 26.4364C86.1624 25.8919 85.4519 25.1351 84.9509 24.1658C84.45 23.1912 84.1995 22.0613 84.1995 20.7763C84.1995 19.4804 84.45 18.3478 84.9509 17.3786C85.4519 16.4039 86.1624 15.647 87.0827 15.108C88.0083 14.5634 89.1055 14.2912 90.3742 14.2912C91.6429 14.2912 92.7374 14.5634 93.6576 15.108C94.5832 15.647 95.2965 16.4039 95.7975 17.3786C96.2984 18.3478 96.5489 19.4804 96.5489 20.7763C96.5489 22.0613 96.2984 23.1912 95.7975 24.1658C95.2965 25.1351 94.5832 25.8919 93.6576 26.4364C92.7374 26.9755 91.6429 27.245 90.3742 27.245ZM90.3905 24.5497C90.9677 24.5497 91.4496 24.3864 91.8362 24.0597C92.2228 23.7275 92.5141 23.2756 92.7101 22.7038C92.9116 22.1321 93.0123 21.4814 93.0123 20.7518C93.0123 20.0221 92.9116 19.3714 92.7101 18.7997C92.5141 18.228 92.2228 17.776 91.8362 17.4439C91.4496 17.1117 90.9677 16.9457 90.3905 16.9457C89.8079 16.9457 89.3179 17.1117 88.9204 17.4439C88.5283 17.776 88.2316 18.228 88.0301 18.7997C87.8341 19.3714 87.7361 20.0221 87.7361 20.7518C87.7361 21.4814 87.8341 22.1321 88.0301 22.7038C88.2316 23.2756 88.5283 23.7275 88.9204 24.0597C89.3179 24.3864 89.8079 24.5497 90.3905 24.5497ZM98.8767 10.2727H103.238L107.845 21.5114H108.041L112.647 10.2727H117.009V27H113.578V16.1126H113.44L109.111 26.9183L106.775 26.9183L102.446 16.0717H102.307V27H98.8767V10.2727ZM123.435 27.2369C122.634 27.2369 121.921 27.098 121.295 26.8203C120.669 26.5372 120.173 26.1206 119.808 25.5707C119.449 25.0153 119.269 24.3237 119.269 23.4961C119.269 22.7991 119.397 22.2138 119.653 21.7401C119.909 21.2663 120.257 20.8852 120.699 20.5966C121.14 20.308 121.641 20.0902 122.201 19.9432C122.768 19.7962 123.361 19.6927 123.982 19.6328C124.712 19.5566 125.3 19.4858 125.746 19.4205C126.193 19.3497 126.517 19.2462 126.718 19.1101C126.92 18.974 127.02 18.7725 127.02 18.5057V18.4567C127.02 17.9394 126.857 17.5392 126.53 17.256C126.209 16.9729 125.752 16.8313 125.158 16.8313C124.532 16.8313 124.034 16.9702 123.663 17.2479C123.293 17.5201 123.048 17.8632 122.928 18.277L119.71 18.0156C119.874 17.2533 120.195 16.5945 120.674 16.0391C121.153 15.4782 121.771 15.0481 122.528 14.7486C123.29 14.4437 124.172 14.2912 125.174 14.2912C125.871 14.2912 126.538 14.3729 127.175 14.5362C127.818 14.6996 128.387 14.9528 128.882 15.2958C129.383 15.6388 129.778 16.0799 130.067 16.619C130.355 17.1526 130.5 17.7924 130.5 18.5384V27H127.2V25.2603H127.102C126.9 25.6523 126.631 25.9981 126.293 26.2976C125.956 26.5916 125.55 26.823 125.076 26.9918C124.603 27.1552 124.055 27.2369 123.435 27.2369ZM124.431 24.8356C124.943 24.8356 125.395 24.7348 125.787 24.5334C126.179 24.3265 126.487 24.0488 126.71 23.7003C126.933 23.3518 127.045 22.957 127.045 22.516V21.1847C126.936 21.2554 126.786 21.3208 126.596 21.3807C126.41 21.4351 126.201 21.4869 125.967 21.5359C125.732 21.5794 125.498 21.6203 125.264 21.6584C125.03 21.6911 124.818 21.721 124.627 21.7482C124.219 21.8081 123.862 21.9034 123.557 22.0341C123.252 22.1648 123.015 22.3417 122.847 22.565C122.678 22.7828 122.593 23.055 122.593 23.3817C122.593 23.8555 122.765 24.2176 123.108 24.468C123.456 24.7131 123.897 24.8356 124.431 24.8356ZM133.199 27V14.4545L136.572 14.4545V16.6435H136.703C136.932 15.8648 137.316 15.2768 137.855 14.8793C138.394 14.4763 139.014 14.2749 139.717 14.2749C139.891 14.2749 140.079 14.2857 140.28 14.3075C140.482 14.3293 140.659 14.3593 140.811 14.3974V17.4847C140.648 17.4357 140.422 17.3922 140.133 17.354C139.845 17.3159 139.581 17.2969 139.341 17.2969C138.829 17.2969 138.372 17.4085 137.969 17.6317C137.571 17.8495 137.256 18.1545 137.021 18.5465C136.793 18.9386 136.678 19.3905 136.678 19.9023V27H133.199ZM145.763 23.3899L145.771 19.2163H146.277L150.296 14.4545L154.29 14.4545L148.891 20.7599L148.066 20.7599L145.763 23.3899ZM142.61 27V10.2727H146.09V27H142.61ZM150.451 27L146.759 21.5359L149.079 19.0774L154.527 27L150.451 27ZM161.198 27.245C159.907 27.245 158.796 26.9837 157.865 26.4609C156.94 25.9328 156.226 25.1868 155.725 24.223C155.224 23.2538 154.974 22.1076 154.974 20.7844C154.974 19.494 155.224 18.3614 155.725 17.3867C156.226 16.4121 156.931 15.6525 157.841 15.108C158.756 14.5634 159.828 14.2912 161.059 14.2912C161.886 14.2912 162.657 14.4246 163.37 14.6914C164.089 14.9528 164.715 15.3475 165.249 15.8757C165.788 16.4039 166.207 17.0682 166.507 17.8686C166.806 18.6636 166.956 19.5947 166.956 20.6619V21.6175H156.362V19.4613H163.681C163.681 18.9603 163.572 18.5166 163.354 18.13C163.136 17.7434 162.834 17.4412 162.447 17.2234C162.066 17.0001 161.622 16.8885 161.116 16.8885C160.588 16.8885 160.119 17.011 159.711 17.256C159.308 17.4956 158.992 17.8196 158.764 18.228C158.535 18.6309 158.418 19.0801 158.412 19.5756V21.6257C158.412 22.2464 158.527 22.7828 158.756 23.2347C158.99 23.6867 159.319 24.0352 159.744 24.2802C160.169 24.5252 160.672 24.6477 161.255 24.6477C161.641 24.6477 161.995 24.5933 162.317 24.4844C162.638 24.3755 162.913 24.2121 163.142 23.9943C163.37 23.7765 163.544 23.5097 163.664 23.1939L166.882 23.4063C166.719 24.1795 166.384 24.8546 165.878 25.4318C165.377 26.0036 164.729 26.45 163.934 26.7713C163.144 27.0871 162.232 27.245 161.198 27.245ZM175.899 14.4545V17.0682L168.344 17.0682V14.4545H175.899ZM170.059 11.4489H173.539V23.1449C173.539 23.4661 173.588 23.7166 173.686 23.8963C173.784 24.0705 173.92 24.1931 174.094 24.2638C174.274 24.3346 174.481 24.37 174.715 24.37C174.878 24.37 175.042 24.3564 175.205 24.3292C175.368 24.2965 175.494 24.272 175.581 24.2557L176.128 26.8448C175.954 26.8993 175.709 26.9619 175.393 27.0327C175.077 27.1089 174.693 27.1552 174.241 27.1715C173.403 27.2042 172.668 27.0926 172.036 26.8366C171.41 26.5807 170.923 26.1832 170.574 25.6442C170.226 25.1051 170.054 24.4245 170.059 23.6023V11.4489Z" fill="#55A6F6"/>
</svg>
