<svg width="222" height="40" viewBox="0 0 222 40" fill="none" xmlns="http://www.w3.org/2000/svg">
<path d="M51.977 29L58.348 12.9H61.66L67.985 29H64.029L60.993 20.835C60.8703 20.513 60.7477 20.168 60.625 19.8C60.5023 19.432 60.3797 19.0563 60.257 18.673C60.1343 18.2743 60.0117 17.891 59.889 17.523C59.7817 17.1397 59.6897 16.787 59.613 16.465L60.303 16.442C60.211 16.8253 60.1037 17.201 59.981 17.569C59.8737 17.937 59.7587 18.305 59.636 18.673C59.5287 19.0257 59.406 19.386 59.268 19.754C59.13 20.1067 58.9997 20.4747 58.877 20.858L55.841 29H51.977ZM55.013 25.918L56.232 22.974L63.638 22.974L64.834 25.918L55.013 25.918ZM73.5411 29.253C72.6365 29.253 71.8621 29.0613 71.2181 28.678C70.5895 28.2793 70.0988 27.712 69.7461 26.976C69.4088 26.24 69.2401 25.3583 69.2401 24.331V16.787L72.9431 16.787V23.825C72.9431 24.3157 73.0198 24.7373 73.1731 25.09C73.3265 25.4427 73.5565 25.7187 73.8631 25.918C74.1698 26.102 74.5378 26.194 74.9671 26.194C75.2891 26.194 75.5805 26.1403 75.8411 26.033C76.1171 25.9257 76.3471 25.78 76.5311 25.596C76.7305 25.3967 76.8838 25.1743 76.9911 24.929C77.0985 24.6683 77.1521 24.3847 77.1521 24.078V16.787H80.8551V29H77.3821L77.2211 26.493L77.9111 26.217C77.7271 26.7997 77.4205 27.321 76.9911 27.781C76.5618 28.2257 76.0481 28.586 75.4501 28.862C74.8521 29.1227 74.2158 29.253 73.5411 29.253ZM85.147 29V13.705L88.827 13.705V29L85.147 29ZM82.985 20.007V16.787L91.196 16.787V20.007H82.985ZM98.9367 29.23C97.664 29.23 96.5294 28.954 95.5327 28.402C94.5514 27.85 93.7694 27.0987 93.1867 26.148C92.6194 25.1973 92.3357 24.1087 92.3357 22.882C92.3357 21.6553 92.6194 20.5667 93.1867 19.616C93.7694 18.6653 94.5514 17.914 95.5327 17.362C96.5294 16.81 97.664 16.534 98.9367 16.534C100.209 16.534 101.336 16.81 102.318 17.362C103.314 17.914 104.096 18.6653 104.664 19.616C105.231 20.5667 105.515 21.6553 105.515 22.882C105.515 24.1087 105.231 25.1973 104.664 26.148C104.096 27.0987 103.314 27.85 102.318 28.402C101.336 28.954 100.209 29.23 98.9367 29.23ZM98.9367 26.056C99.4887 26.056 99.9794 25.918 100.409 25.642C100.838 25.366 101.175 24.9903 101.421 24.515C101.666 24.0397 101.781 23.4953 101.766 22.882C101.781 22.2687 101.666 21.7243 101.421 21.249C101.175 20.7583 100.838 20.375 100.409 20.099C99.9794 19.823 99.4887 19.685 98.9367 19.685C98.3847 19.685 97.8864 19.823 97.4417 20.099C97.0124 20.375 96.675 20.7583 96.4297 21.249C96.1844 21.7243 96.0694 22.2687 96.0847 22.882C96.0694 23.4953 96.1844 24.0397 96.4297 24.515C96.675 24.9903 97.0124 25.366 97.4417 25.642C97.8864 25.918 98.3847 26.056 98.9367 26.056ZM107.898 29V16.787H111.394L111.509 18.995L111.026 19.018C111.21 18.6193 111.44 18.2667 111.716 17.96C112.007 17.6533 112.329 17.4003 112.682 17.201C113.05 16.9863 113.426 16.8253 113.809 16.718C114.208 16.6107 114.606 16.557 115.005 16.557C115.603 16.557 116.147 16.649 116.638 16.833C117.129 17.017 117.558 17.316 117.926 17.73C118.294 18.1287 118.585 18.673 118.8 19.363L118.225 19.317L118.409 18.949C118.608 18.581 118.861 18.2513 119.168 17.96C119.49 17.6533 119.843 17.4003 120.226 17.201C120.609 16.9863 121.008 16.8253 121.422 16.718C121.836 16.6107 122.235 16.557 122.618 16.557C123.584 16.557 124.389 16.7487 125.033 17.132C125.677 17.5 126.16 18.0597 126.482 18.811C126.819 19.5623 126.988 20.4747 126.988 21.548V29H123.285V21.847C123.285 21.3563 123.216 20.95 123.078 20.628C122.94 20.306 122.733 20.0683 122.457 19.915C122.196 19.7463 121.867 19.662 121.468 19.662C121.146 19.662 120.847 19.7157 120.571 19.823C120.31 19.9303 120.08 20.076 119.881 20.26C119.697 20.444 119.551 20.6587 119.444 20.904C119.337 21.1493 119.283 21.4253 119.283 21.732V29L115.58 29V21.824C115.58 21.364 115.511 20.973 115.373 20.651C115.235 20.329 115.028 20.0837 114.752 19.915C114.476 19.7463 114.154 19.662 113.786 19.662C113.464 19.662 113.165 19.7157 112.889 19.823C112.628 19.9303 112.398 20.076 112.199 20.26C112.015 20.444 111.869 20.6587 111.762 20.904C111.655 21.1493 111.601 21.4177 111.601 21.709V29H107.898ZM134.553 29.207C133.526 29.207 132.606 28.9387 131.793 28.402C130.996 27.85 130.359 27.0987 129.884 26.148C129.409 25.182 129.171 24.0933 129.171 22.882C129.171 21.64 129.409 20.5437 129.884 19.593C130.359 18.6423 131.011 17.8987 131.839 17.362C132.667 16.81 133.61 16.534 134.668 16.534C135.251 16.534 135.78 16.6183 136.255 16.787C136.746 16.9557 137.175 17.1933 137.543 17.5C137.911 17.7913 138.225 18.1363 138.486 18.535C138.747 18.9183 138.938 19.3323 139.061 19.777L138.302 19.685V16.787H141.959V29H138.233V26.056L139.061 26.033C138.938 26.4623 138.739 26.8687 138.463 27.252C138.187 27.6353 137.85 27.9727 137.451 28.264C137.052 28.5553 136.608 28.7853 136.117 28.954C135.626 29.1227 135.105 29.207 134.553 29.207ZM135.565 26.102C136.132 26.102 136.623 25.9717 137.037 25.711C137.451 25.4503 137.773 25.0823 138.003 24.607C138.233 24.1163 138.348 23.5413 138.348 22.882C138.348 22.2227 138.233 21.6553 138.003 21.18C137.773 20.6893 137.451 20.3137 137.037 20.053C136.623 19.777 136.132 19.639 135.565 19.639C135.013 19.639 134.53 19.777 134.116 20.053C133.717 20.3137 133.403 20.6893 133.173 21.18C132.943 21.6553 132.828 22.2227 132.828 22.882C132.828 23.5413 132.943 24.1163 133.173 24.607C133.403 25.0823 133.717 25.4503 134.116 25.711C134.53 25.9717 135.013 26.102 135.565 26.102ZM145.206 29V16.787L148.702 16.787L148.863 20.766L148.173 20.007C148.357 19.3477 148.656 18.7573 149.07 18.236C149.5 17.7147 149.998 17.3007 150.565 16.994C151.133 16.6873 151.738 16.534 152.382 16.534C152.658 16.534 152.911 16.557 153.141 16.603C153.387 16.649 153.609 16.7027 153.808 16.764L152.796 20.835C152.628 20.7277 152.398 20.6433 152.106 20.582C151.83 20.5053 151.539 20.467 151.232 20.467C150.895 20.467 150.581 20.5283 150.289 20.651C149.998 20.7583 149.753 20.9193 149.553 21.134C149.354 21.3487 149.193 21.6017 149.07 21.893C148.963 22.1843 148.909 22.514 148.909 22.882V29L145.206 29ZM159.215 25.412L157.858 22.652L163.562 16.787H168.415L159.215 25.412ZM155.673 29V11.98L159.353 11.98V29H155.673ZM163.953 29L159.652 23.434L162.251 21.41L168.3 29H163.953ZM175.373 29.23C174.024 29.23 172.851 28.9617 171.854 28.425C170.857 27.873 170.083 27.1293 169.531 26.194C168.979 25.2433 168.703 24.1623 168.703 22.951C168.703 22.0157 168.856 21.157 169.163 20.375C169.47 19.593 169.899 18.9183 170.451 18.351C171.003 17.7683 171.655 17.3237 172.406 17.017C173.173 16.695 174.008 16.534 174.913 16.534C175.772 16.534 176.554 16.6873 177.259 16.994C177.98 17.3007 178.601 17.73 179.122 18.282C179.643 18.834 180.042 19.4857 180.318 20.237C180.594 20.9883 180.717 21.8087 180.686 22.698L180.663 23.687L170.934 23.687L170.405 21.617H177.673L177.282 22.054V21.594C177.251 21.2107 177.129 20.8733 176.914 20.582C176.715 20.2753 176.446 20.0377 176.109 19.869C175.772 19.7003 175.388 19.616 174.959 19.616C174.361 19.616 173.847 19.7387 173.418 19.984C173.004 20.214 172.69 20.559 172.475 21.019C172.26 21.4637 172.153 22.0157 172.153 22.675C172.153 23.3497 172.291 23.94 172.567 24.446C172.858 24.9367 173.272 25.32 173.809 25.596C174.361 25.872 175.013 26.01 175.764 26.01C176.285 26.01 176.745 25.9333 177.144 25.78C177.558 25.6267 178.003 25.366 178.478 24.998L180.203 27.436C179.728 27.85 179.222 28.1873 178.685 28.448C178.148 28.7087 177.596 28.9003 177.029 29.023C176.477 29.161 175.925 29.23 175.373 29.23ZM184.042 29V13.705H187.722V29H184.042ZM181.88 20.007V16.787L190.091 16.787V20.007L181.88 20.007Z" fill="#3DB8F5"/>
<rect x="8" y="2" width="36" height="36" rx="7" fill="#3DB8F5"/>
<rect x="8" y="2" width="36" height="36" rx="7" stroke="black"/>
<path d="M15 20C15 19.4814 15.0857 18.9662 15.2539 18.4756L15.2998 18.3652L16.6992 15.4648L16.7422 15.3857L16.9131 15.1299C17.3504 14.5387 18.0627 14 19 14L26 14C26.8763 14 27.6091 14.3312 28.1865 14.7402L28.4248 14.919L28.5068 14.9932C28.967 15.4533 29.525 16.036 29.9639 16.5C30.184 16.7328 30.3758 16.9376 30.5127 17.084C30.515 17.0864 30.5173 17.0894 30.5195 17.0918C30.5658 17.1023 30.6166 17.1144 30.6719 17.127C30.9551 17.1915 31.3516 17.2827 31.8047 17.3897C32.7077 17.6029 33.8481 17.8813 34.7676 18.1367C35.9679 18.4489 37 19.6157 37 21V24C37 24.5272 36.8194 25.0439 36.4316 25.4316C36.0439 25.8194 35.5272 26 35 26L33 26C32.4477 26 32 25.5523 32 25C32 24.4477 32.4477 24 33 24L35 24V21C35 20.6444 34.7298 20.2734 34.4014 20.1211L34.2578 20.0703C34.2494 20.0682 34.2407 20.0658 34.2324 20.0635C33.3519 19.8189 32.2418 19.5477 31.3447 19.3359C30.898 19.2305 30.5067 19.1398 30.2275 19.0762C30.0882 19.0444 29.9768 19.0191 29.9004 19.002C29.8621 18.9934 29.8323 18.9869 29.8125 18.9824C29.8027 18.9802 29.795 18.9786 29.79 18.9775C29.788 18.9771 29.7863 18.9768 29.7852 18.9766H29.7832C29.6347 18.9436 29.4961 18.877 29.3779 18.7832L29.2676 18.6807H29.2666V18.6797C29.266 18.6791 29.2649 18.678 29.2637 18.6768C29.2613 18.6742 29.2577 18.6702 29.2529 18.665C29.2434 18.6548 29.2292 18.6398 29.2109 18.6201C29.174 18.5805 29.1202 18.5223 29.0527 18.4502C28.9178 18.3059 28.7279 18.1046 28.5107 17.875C28.0878 17.4279 27.5652 16.8811 27.1328 16.4473C26.7562 16.1559 26.384 16 26 16L19 16C18.8756 16 18.6633 16.0898 18.4766 16.3838L17.1318 19.1689C17.045 19.4374 17 19.7177 17 20L17 24H19C19.5523 24 20 24.4477 20 25C20 25.5523 19.5523 26 19 26H17C16.4727 26 15.9561 25.8194 15.5684 25.4316C15.1806 25.0439 15 24.5272 15 24V20Z" fill="white"/>
<path d="M22 25C22 24.4477 21.5523 24 21 24C20.4477 24 20 24.4477 20 25C20 25.5523 20.4477 26 21 26C21.5523 26 22 25.5523 22 25ZM24 25C24 26.6569 22.6568 28 21 28C19.3432 28 18 26.6569 18 25C18 23.3431 19.3432 22 21 22C22.6568 22 24 23.3431 24 25Z" fill="white"/>
<path d="M29 24C29.5523 24 30 24.4477 30 25C30 25.5523 29.5523 26 29 26H23C22.4477 26 22 25.5523 22 25C22 24.4477 22.4477 24 23 24H29Z" fill="white"/>
<path d="M32 25C32 24.4477 31.5523 24 31 24C30.4477 24 30 24.4477 30 25C30 25.5523 30.4477 26 31 26C31.5523 26 32 25.5523 32 25ZM34 25C34 26.6569 32.6569 28 31 28C29.3431 28 28 26.6569 28 25C28 23.3431 29.3431 22 31 22C32.6569 22 34 23.3431 34 25Z" fill="white"/>
</svg>
