<svg width="20" height="20" viewBox="0 0 20 20" fill="none" xmlns="http://www.w3.org/2000/svg">
<path d="M13.3025 13.302C13.6064 12.9982 14.087 12.9794 14.413 13.2453L14.4762 13.302L18.0783 16.9042L18.1359 16.9673C18.4015 17.2933 18.382 17.774 18.0783 18.0778C17.7745 18.3816 17.2938 18.401 16.9678 18.1354L16.9046 18.0778L13.3025 14.4757L13.2458 14.4125C12.9799 14.0865 12.9987 13.6059 13.3025 13.302Z" fill="#16181D"/>
<path d="M14.9802 9.16995C14.9802 5.96118 12.379 3.35995 9.1702 3.35995C5.96142 3.35995 3.3602 5.96118 3.3602 9.16995C3.3602 12.3787 5.96142 14.98 9.1702 14.98C12.379 14.98 14.9802 12.3787 14.9802 9.16995ZM16.6402 9.16995C16.6402 13.2955 13.2958 16.64 9.1702 16.64C5.04463 16.64 1.7002 13.2955 1.7002 9.16995C1.7002 5.04439 5.04463 1.69995 9.1702 1.69995C13.2958 1.69995 16.6402 5.04439 16.6402 9.16995Z" fill="#16181D"/>
</svg>
