<svg width="20" height="20" viewBox="0 0 20 20" fill="none" xmlns="http://www.w3.org/2000/svg">
<path d="M11.0126 3.36C11.0126 3.13987 10.9251 2.92883 10.7694 2.77317C10.6138 2.61758 10.4026 2.53 10.1826 2.53L9.81781 2.53C9.59777 2.53 9.38662 2.61758 9.231 2.77317C9.07537 2.92883 8.98781 3.13987 8.98781 3.36V3.50995C8.98739 3.9466 8.87161 4.37611 8.65307 4.75415C8.43461 5.132 8.12085 5.44613 7.74284 5.66439L7.74203 5.66358L7.38782 5.87026L7.38539 5.87189C7.00695 6.0903 6.57734 6.20502 6.14039 6.20502C5.70341 6.20497 5.27382 6.09038 4.89539 5.87189L4.79569 5.81839L4.77138 5.80542C4.58093 5.69558 4.35479 5.66595 4.14239 5.72275C3.95642 5.77248 3.79423 5.88473 3.68281 6.03967L3.63823 6.10856L3.45586 6.42387C3.34671 6.61395 3.31744 6.83943 3.37399 7.05124C3.4237 7.23714 3.53606 7.3994 3.69092 7.51082L3.75982 7.5554L3.8044 7.58295L3.92841 7.66563C4.28462 7.88141 4.58122 8.18211 4.79083 8.54261C5.00924 8.91835 5.12539 9.34497 5.12802 9.77955V10.2043L5.12315 10.368C5.09951 10.7498 4.98865 11.122 4.79732 11.4549C4.58095 11.8314 4.26908 12.1436 3.89436 12.3628L3.89518 12.3636L3.77035 12.4381L3.75982 12.4446C3.56955 12.5548 3.43079 12.7363 3.37399 12.9487C3.31744 13.1606 3.34671 13.3861 3.45586 13.5761L3.63742 13.8915C3.74762 14.0817 3.92999 14.2205 4.14239 14.2772C4.35479 14.334 4.58093 14.3044 4.77138 14.1946L4.79569 14.1816L4.89539 14.1281L5.03967 14.0511C5.38136 13.8827 5.75799 13.795 6.14039 13.795C6.52271 13.795 6.89947 13.8828 7.24111 14.0511L7.38539 14.1281L7.38782 14.1298L7.74203 14.3356C8.12003 14.5539 8.43461 14.868 8.65307 15.2459C8.87161 15.6239 8.98739 16.0534 8.98781 16.49V16.64C8.98781 16.8601 9.07537 17.0712 9.231 17.2268C9.38662 17.3824 9.59777 17.47 9.81781 17.47H10.1826C10.4026 17.47 10.6138 17.3824 10.7694 17.2268C10.9251 17.0712 11.0126 16.8601 11.0126 16.64V16.49L11.0182 16.3263C11.0436 15.9466 11.1562 15.5766 11.3473 15.2459C11.5385 14.9153 11.8028 14.6338 12.119 14.4223L12.2576 14.3356L12.6126 14.1298L12.6151 14.1281L12.7593 14.0511C13.101 13.8828 13.4777 13.795 13.8601 13.795C14.297 13.795 14.7266 13.9096 15.1051 14.1281L15.2291 14.1946C15.4195 14.3044 15.6457 14.334 15.858 14.2772C16.0704 14.2205 16.252 14.0817 16.3622 13.8915L16.5397 13.5761L16.5438 13.5697L16.5811 13.4959C16.6595 13.3222 16.6761 13.1256 16.6265 12.9399C16.5696 12.7275 16.4307 12.5467 16.2406 12.4365L16.1417 12.3838C16.1336 12.3795 16.1254 12.3755 16.1174 12.3708C15.7374 12.1514 15.4217 11.8354 15.2031 11.4549C14.9845 11.0745 14.8707 10.643 14.8724 10.2043L14.8724 9.7925C14.8713 9.35493 14.9851 8.92449 15.2031 8.5451C15.4194 8.16868 15.7306 7.85552 16.1052 7.63644L16.2301 7.56188L16.2406 7.5554L16.3095 7.51082C16.4644 7.3994 16.5767 7.23714 16.6265 7.05124C16.683 6.83943 16.6537 6.61395 16.5445 6.42387L16.3622 6.10776C16.252 5.9175 16.0704 5.77955 15.858 5.72275C15.6721 5.67305 15.4758 5.6896 15.302 5.76814L15.2291 5.80542C15.2211 5.81001 15.2128 5.81408 15.2048 5.81839L15.1042 5.87108L15.1051 5.87189C14.7266 6.09038 14.297 6.20497 13.8601 6.20502C13.4231 6.20502 12.9935 6.0903 12.6151 5.87189L12.6126 5.87026L12.2576 5.66358C11.8796 5.44533 11.5659 5.132 11.3473 4.75415C11.1288 4.37611 11.013 3.9466 11.0126 3.50995V3.36ZM12.6726 3.50833L12.6799 3.61695C12.6942 3.72449 12.7298 3.8288 12.7845 3.92333C12.8391 4.01783 12.9115 4.10049 12.9976 4.1665L13.09 4.2281L13.4442 4.43398C13.5703 4.50674 13.7144 4.54502 13.8601 4.54502C14.0057 4.54497 14.149 4.50677 14.2751 4.43398L14.2994 4.42019L14.4234 4.35374C14.9898 4.03518 15.6584 3.95066 16.2868 4.11867C16.8443 4.26777 17.3305 4.60509 17.6647 5.06945L17.7985 5.27613L17.9809 5.59225L17.9817 5.59306L18.0943 5.81191C18.3299 6.33318 18.3795 6.92258 18.2305 7.48001C18.0612 8.11327 17.6481 8.65316 17.0828 8.98441L17.0835 8.98516L16.9474 9.06708C16.8208 9.14021 16.7155 9.24586 16.6426 9.37261C16.5699 9.49935 16.5318 9.6431 16.5324 9.78927L16.5324 10.2107C16.5318 10.3569 16.5699 10.5007 16.6426 10.6274C16.7144 10.7522 16.8177 10.8559 16.9418 10.9289L17.0471 10.9856L17.0731 11.0002L17.2798 11.1339C17.7439 11.4682 18.0815 11.9537 18.2305 12.5111C18.4002 13.1455 18.311 13.8209 17.9849 14.3907L17.9858 14.3915L17.8033 14.7157L17.7985 14.7239C17.4678 15.2947 16.924 15.7109 16.2868 15.8813C15.6583 16.0494 14.9898 15.9634 14.4234 15.6447V15.6462L14.2994 15.5798C14.2913 15.5754 14.283 15.5706 14.2751 15.5661C14.149 15.4933 14.0057 15.455 13.8601 15.455C13.7144 15.455 13.5711 15.4933 13.4451 15.5661L13.4442 15.5652L13.09 15.7719L12.9976 15.8335C12.9115 15.8996 12.8391 15.9821 12.7845 16.0767C12.7116 16.2027 12.6728 16.3461 12.6726 16.4917V16.64C12.6726 17.3003 12.4107 17.9336 11.9439 18.4005C11.477 18.8675 10.8429 19.13 10.1826 19.13H9.81781C9.15746 19.13 8.5235 18.8675 8.05652 18.4005C7.58974 17.9336 7.32784 17.3003 7.32784 16.64V16.4917L7.32054 16.383C7.30627 16.2755 7.27063 16.1712 7.21599 16.0767C7.16132 15.9821 7.08889 15.8996 7.00281 15.8335L6.91041 15.7719L6.55539 15.5652C6.42927 15.4924 6.286 15.455 6.14039 15.455C6.03125 15.455 5.92367 15.4768 5.82346 15.5182L5.72539 15.5661C5.71742 15.5706 5.7092 15.5754 5.70107 15.5798L5.57706 15.6462L5.57625 15.6447C5.00993 15.9631 4.34196 16.0493 3.71361 15.8813C3.15607 15.7322 2.66992 15.3949 2.33568 14.9305L2.20194 14.7239L2.01958 14.4077L2.01876 14.407C1.68926 13.8357 1.59968 13.1571 1.76992 12.52C1.93923 11.8868 2.35167 11.346 2.91685 11.0148L3.05302 10.9329L3.1438 10.8722C3.23023 10.8058 3.30311 10.7225 3.35778 10.6274C3.43057 10.5007 3.4686 10.3569 3.46802 10.2107V9.78927L3.46072 9.68145C3.44605 9.57446 3.40998 9.47063 3.35535 9.37667C3.30073 9.28288 3.22864 9.20071 3.14299 9.13514L3.05302 9.07513L3.00763 9.04683L2.88361 8.96416C2.336 8.63133 1.9358 8.10036 1.76992 7.48001C1.59968 6.84292 1.68927 6.1643 2.01876 5.59306L2.01958 5.59144L2.20194 5.27613L2.33568 5.06945C2.66992 4.60509 3.15607 4.26777 3.71361 4.11867C4.34184 3.95072 5.01001 4.03628 5.57625 4.35454L5.57706 4.35374L5.70107 4.42019L5.72539 4.43398L5.82346 4.4818C5.92367 4.52327 6.03124 4.54498 6.14039 4.54502C6.2497 4.54502 6.35778 4.52335 6.45812 4.4818L6.55539 4.43398L6.91041 4.2281L7.00281 4.1665C7.08889 4.10049 7.16132 4.01783 7.21599 3.92333C7.28873 3.79749 7.32759 3.65449 7.32784 3.50915V3.36C7.32784 2.69975 7.58974 2.06643 8.05652 1.5995C8.5235 1.13253 9.15746 0.870003 9.81781 0.870003L10.1826 0.870003C10.8429 0.870003 11.477 1.13253 11.9439 1.5995C12.4107 2.06643 12.6726 2.69975 12.6726 3.36V3.50833Z" fill="#16181D"/>
<path d="M11.6602 10C11.6602 9.08318 10.917 8.34 10.0002 8.34C9.08336 8.34 8.34018 9.08318 8.34018 10C8.34018 10.9168 9.08336 11.66 10.0002 11.66C10.917 11.66 11.6602 10.9168 11.6602 10ZM13.3202 10C13.3202 11.8336 11.8337 13.32 10.0002 13.32C8.16659 13.32 6.68018 11.8336 6.68018 10C6.68018 8.16641 8.16659 6.68 10.0002 6.68C11.8337 6.68 13.3202 8.16641 13.3202 10Z" fill="#16181D"/>
</svg>
