<svg width="20" height="20" viewBox="0 0 20 20" fill="none" xmlns="http://www.w3.org/2000/svg">
<g clip-path="url(#clip0_324_19131)">
<path d="M5.28563 14.7135L4.1073 15.8919M5.28563 5.28517L4.1073 4.10684M14.714 5.28517L15.8923 4.10684M14.714 14.7135L15.8923 15.8919M3.33317 9.99935H1.6665M9.99984 3.33268V1.66602M16.6665 9.99935H18.3332M9.99984 16.666V18.3327M12.3565 12.356C12.6749 12.0485 12.9288 11.6807 13.1035 11.274C13.2782 10.8673 13.3702 10.4299 13.374 9.98734C13.3779 9.54475 13.2935 9.10581 13.1259 8.69616C12.9583 8.2865 12.7108 7.91433 12.3979 7.60136C12.0849 7.28838 11.7127 7.04087 11.3031 6.87327C10.8934 6.70566 10.4545 6.62133 10.0119 6.62517C9.56927 6.62902 9.13187 6.72097 8.72519 6.89567C8.31851 7.07037 7.95069 7.32431 7.6432 7.64267C7.03601 8.27135 6.70003 9.11335 6.70763 9.98734C6.71522 10.8613 7.06578 11.6974 7.68381 12.3154C8.30184 12.9334 9.13788 13.284 10.0119 13.2916C10.8859 13.2992 11.7279 12.9632 12.3565 12.356Z" stroke="#1A1A1A" stroke-width="1.4" stroke-linecap="round" stroke-linejoin="round"/>
</g>
<defs>
<clipPath id="clip0_324_19131">
<rect width="20" height="20" fill="white"/>
</clipPath>
</defs>
</svg>
