<svg width="20" height="20" viewBox="0 0 20 20" fill="none" xmlns="http://www.w3.org/2000/svg">
<path d="M12.4799 17.4901L12.4799 15.8301C12.4799 15.1697 12.2173 14.5365 11.7504 14.0695C11.3419 13.661 10.8062 13.4089 10.2363 13.3522L9.98986 13.3401L5.00986 13.3401C4.34947 13.3401 3.71632 13.6026 3.24936 14.0695C2.78239 14.5365 2.51986 15.1697 2.51986 15.8301L2.51986 17.4901C2.51986 17.9485 2.14826 18.3201 1.68986 18.3201C1.23147 18.3201 0.859863 17.9485 0.859863 17.4901L0.859863 15.8301C0.859863 14.7294 1.29741 13.6741 2.07568 12.8958C2.85396 12.1176 3.90922 11.6801 5.00986 11.6801L9.98986 11.6801L10.1957 11.685C11.2214 11.7358 12.1944 12.1663 12.9241 12.8958C13.7023 13.6741 14.1399 14.7294 14.1399 15.8301L14.1399 17.4901C14.1399 17.9485 13.7683 18.3201 13.3099 18.3201C12.8515 18.3201 12.4799 17.9485 12.4799 17.4901Z" fill="#16181D"/>
<path d="M14.9917 5.83006C14.9917 5.27853 14.8088 4.74245 14.4713 4.30624C14.1759 3.92444 13.7766 3.63784 13.3236 3.47948L13.1266 3.4195L13.0456 3.39437C12.6511 3.2482 12.4238 2.82394 12.5317 2.40794C12.6396 1.99204 13.044 1.73219 13.4598 1.79597L13.5433 1.81299L13.7086 1.85919C14.5306 2.10901 15.256 2.6089 15.7836 3.29062C16.3462 4.01768 16.6517 4.91075 16.6517 5.83006C16.6517 6.74938 16.3462 7.64244 15.7836 8.36954C15.2209 9.09654 14.4332 9.61645 13.5433 9.84711C13.0995 9.96215 12.6468 9.6958 12.5317 9.25217C12.4166 8.80853 12.683 8.35568 13.1266 8.24063C13.6605 8.1022 14.1337 7.79014 14.4713 7.35389C14.8088 6.91768 14.9917 6.3816 14.9917 5.83006Z" fill="#16181D"/>
<path d="M17.4947 17.4904L17.4947 15.8312L17.4858 15.6254C17.4458 15.1471 17.2686 14.689 16.9727 14.3074C16.6769 13.9258 16.2774 13.6394 15.8242 13.4815L15.6272 13.4215L15.5461 13.3963C15.1516 13.2506 14.9241 12.8268 15.0315 12.4107C15.1389 11.9948 15.543 11.7338 15.9587 11.7972L16.0422 11.8149L16.2076 11.8612C17.03 12.1102 17.7568 12.6087 18.285 13.2902C18.8483 14.0168 19.154 14.9102 19.1547 15.8296L19.1547 17.4904C19.1546 17.9488 18.7831 18.3204 18.3247 18.3204C17.8664 18.3204 17.4948 17.9488 17.4947 17.4904Z" fill="#16181D"/>
<path d="M9.9901 5.83005C9.9901 4.45487 8.87533 3.34005 7.5001 3.34005C6.12491 3.34005 5.0101 4.45487 5.0101 5.83005C5.0101 7.20524 6.12491 8.32005 7.5001 8.32005C8.87533 8.32005 9.9901 7.20524 9.9901 5.83005ZM11.6501 5.83005C11.6501 8.12203 9.79206 9.98005 7.5001 9.98005C5.20812 9.98005 3.3501 8.12203 3.3501 5.83005C3.3501 3.53808 5.20812 1.68005 7.5001 1.68005C9.79206 1.68005 11.6501 3.53808 11.6501 5.83005Z" fill="#16181D"/>
</svg>
