<svg width="20" height="20" viewBox="0 0 20 20" fill="none" xmlns="http://www.w3.org/2000/svg">
<path d="M3.00001 7.5H17M3.00001 12.5H17M9.58331 2.5C8.17943 4.74968 7.43515 7.34822 7.43515 10C7.43515 12.6518 8.17943 15.2503 9.58331 17.5M10.4167 2.5C11.8205 4.74968 12.5648 7.34822 12.5648 10C12.5648 12.6518 11.8205 15.2503 10.4167 17.5M17.5 10C17.5 14.1421 14.1421 17.5 10 17.5C5.85786 17.5 2.5 14.1421 2.5 10C2.5 5.85786 5.85786 2.5 10 2.5C14.1421 2.5 17.5 5.85786 17.5 10Z" stroke="#1A1A1A" stroke-width="1.4" stroke-linecap="round" stroke-linejoin="round"/>
</svg>
